Coordinates
version=1
nRows=14
nColumns=46
inDegrees=yes

Units are S.I. units (second, meters, Newtons, ...)
Angles are in degrees.

endheader
time	pelvis_tilt	pelvis_list	pelvis_rotation	pelvis_tx	pelvis_ty	pelvis_tz	bb_angle	bb_tx	bb_ty	bb_tz	hip_flexion_r	hip_adduction_r	hip_rotation_r	knee_angle_r	knee_angle_r_beta	ankle_angle_r	subtalar_angle_r	mtp_angle_r	crank_angle_r	hip_flexion_l	hip_adduction_l	hip_rotation_l	knee_angle_l	knee_angle_l_beta	ankle_angle_l	subtalar_angle_l	mtp_angle_l	crank_angle_l	lumbar_extension	lumbar_bending	lumbar_rotation	arm_flex_r	arm_add_r	arm_rot_r	elbow_flex_r	pro_sup_r	wrist_flex_r	wrist_dev_r	arm_flex_l	arm_add_l	arm_rot_l	elbow_flex_l	pro_sup_l	wrist_flex_l	wrist_dev_l
      2.50000000	    -18.14789132	      6.64438932	     11.45791652	      0.26130736	      1.14725024	     -0.27605091	      0.00000000	      0.50000000	      0.00000000	      0.25000000	     30.47587107	    -16.78521546	    -12.23240959	     30.50539162	      0.53241952	    -35.87798630	    -12.46282509	      0.00000000	      0.00000000	     83.23558260	      4.21441057	     -3.25404147	    106.76352960	      1.86337511	      1.03157959	     -3.34495282	      0.00000000	      0.00000000	    -59.21878275	      0.09183208	    -13.50452597	     83.07266237	     -4.87097159	     46.40226589	     20.60242135	     36.87841402	      0.00000000	      0.00000000	     82.70077330	    -15.56831647	     52.07364718	     42.10239430	     43.76996826	      0.00000000	      0.00000000
      2.50500000	    -18.26787195	      6.53712455	     11.81759571	      0.26058588	      1.14860748	     -0.27560134	      0.00000000	      0.50000000	      0.00000000	      0.25000000	     31.06021192	    -16.76994760	    -11.58881218	     32.19881459	      0.56197533	    -36.49284007	    -13.35392329	      0.00000000	      0.00000000	     83.23732247	      4.92276422	     -2.99166530	    105.49946471	      1.84131302	      1.83539737	     -3.54284641	      0.00000000	      0.00000000	    -59.40238393	      0.34827860	    -13.34631197	     83.28492528	     -5.11988095	     46.39385547	     20.63394512	     36.89962144	      0.00000000	      0.00000000	     82.89090703	    -15.36244199	     51.85886110	     42.36477733	     43.79715620	      0.00000000	      0.00000000
      2.51000000	    -18.72377553	      6.46124160	     12.01655553	      0.25989165	      1.14932104	     -0.27479251	      0.00000000	      0.50000000	      0.00000000	      0.25000000	     32.21115637	    -16.64493826	    -10.37523327	     34.13759178	      0.59581338	    -37.06241359	    -14.57067611	      0.00000000	      0.00000000	     83.42781019	      5.43536016	     -2.83617364	    104.07998385	      1.81653840	      2.57345989	     -3.69231291	      0.00000000	      0.00000000	    -59.14039852	      0.29317141	    -13.20113876	     83.08399174	     -5.59861313	     46.38738822	     20.97764877	     37.01661915	      0.00000000	      0.00000000	     82.70545073	    -15.12663323	     51.19124302	     42.88752124	     43.83929647	      0.00000000	      0.00000000
      2.51500000	    -18.86257707	      6.24876656	     12.31074678	      0.25923735	      1.15025439	     -0.27417215	      0.00000000	      0.50000000	      0.00000000	      0.25000000	     33.01869236	    -16.41405684	     -9.49342559	     36.19223144	      0.63167360	    -37.22576937	    -15.45256563	      0.00000000	      0.00000000	     83.18305608	      6.04936273	     -2.45348503	    102.56303580	      1.79006267	      3.47322910	     -4.04641804	      0.00000000	      0.00000000	    -59.22678297	      0.54304975	    -12.98434820	     83.19600953	     -5.97465139	     46.25579598	     21.13809375	     37.04754283	      0.00000000	      0.00000000	     82.79665556	    -15.00380662	     50.86030107	     43.19583166	     43.86388092	      0.00000000	      0.00000000
      2.52000000	    -19.35421773	      6.11300101	     12.40686994	      0.25859306	      1.15035391	     -0.27328356	      0.00000000	      0.50000000	      0.00000000	      0.25000000	     34.46676971	    -16.16930979	     -8.27559122	     38.58798507	      0.67348739	    -37.41022233	    -16.54439289	      0.00000000	      0.00000000	     83.16766152	      6.45195382	     -2.22631845	    100.92087954	      1.76140163	      4.26531993	     -4.41206632	      0.00000000	      0.00000000	    -58.88299189	      0.41149566	    -12.76085131	     82.84258000	     -6.55678340	     45.91138811	     21.86332209	     37.18917266	      0.00000000	      0.00000000	     82.59024741	    -14.74424147	     50.20595438	     43.74552438	     43.91500116	      0.00000000	      0.00000000
      2.52500000	    -19.46672029	      5.84541748	     12.62500152	      0.25812764	      1.15084098	     -0.27260621	      0.00000000	      0.50000000	      0.00000000	      0.25000000	     35.38429503	    -15.81346134	     -7.45538612	     40.92116741	      0.71420911	    -37.28312787	    -17.48450957	      0.00000000	      0.00000000	     82.63283577	      6.95266038	     -1.75303192	     99.17961555	      1.73101084	      5.17491201	     -4.77279400	      0.00000000	      0.00000000	    -58.87559950	      0.64003627	    -12.48956480	     82.81457803	     -6.84013817	     45.67542341	     22.16182506	     37.23457944	      0.00000000	      0.00000000	     82.64951007	    -14.64746948	     49.92698466	     43.99521717	     43.93876419	      0.00000000	      0.00000000
      2.53000000	    -19.84093121	      5.65710665	     12.67830644	      0.25768374	      1.15068925	     -0.27175705	      0.00000000	      0.50000000	      0.00000000	      0.25000000	     36.74756133	    -15.45854475	     -6.35230636	     43.43770408	      0.75813096	    -37.17814795	    -18.31785285	      0.00000000	      0.00000000	     82.24110172	      7.26367424	     -1.45233882	     97.28358851	      1.69791893	      5.95015505	     -5.27555483	      0.00000000	      0.00000000	    -58.55930501	      0.57187614	    -12.26974375	     82.46129940	     -7.09797542	     45.28087747	     22.85062023	     37.35020257	      0.00000000	      0.00000000	     82.47646065	    -14.54076327	     49.52380046	     44.32199199	     43.97587475	      0.00000000	      0.00000000
      2.53500000	    -19.79986254	      5.22477683	     12.75557440	      0.25741212	      1.15084244	     -0.27103686	      0.00000000	      0.50000000	      0.00000000	      0.25000000	     37.56974376	    -14.85606535	     -5.65789211	     45.82853037	      0.79985875	    -36.93447409	    -18.91642642	      0.00000000	      0.00000000	     81.41322404	      7.48641340	     -1.02424567	     95.18595983	      1.66130840	      6.33428293	     -6.19848897	      0.00000000	      0.00000000	    -58.59660661	      0.86263226	    -11.86023462	     82.52475450	     -7.20006693	     45.11392250	     23.05205914	     37.37576860	      0.00000000	      0.00000000	     82.46484115	    -14.57365382	     49.36650558	     44.43656527	     43.98671034	      0.00000000	      0.00000000
      2.54000000	    -20.29430622	      5.14988856	     12.71799462	      0.25707315	      1.15023487	     -0.27025720	      0.00000000	      0.50000000	      0.00000000	      0.25000000	     39.13787299	    -14.61725133	     -4.58123387	     48.42923429	      0.84524959	    -36.62206716	    -19.38463359	      0.00000000	      0.00000000	     80.95274765	      7.75724113	     -1.18653152	     92.69387639	      1.61781334	      5.56377269	     -8.69038847	      0.00000000	      0.00000000	    -58.13772354	      0.55168228	    -11.85402695	     82.06055016	     -7.44807096	     44.49252511	     23.69248888	     37.47800481	      0.00000000	      0.00000000	     82.12090674	    -14.50126336	     48.82507271	     44.87568951	     44.04189302	      0.00000000	      0.00000000
      2.54500000	    -20.22161479	      4.70926510	     12.62636559	      0.25700383	      1.14989628	     -0.26947966	      0.00000000	      0.50000000	      0.00000000	      0.25000000	     40.01746671	    -13.98583633	     -4.07624356	     50.90690102	      0.88849303	    -36.20223014	    -19.92350057	      0.00000000	      0.00000000	     79.89256526	      7.79029649	     -0.71556137	     90.45909324	      1.57880902	      5.94286971	     -9.48652924	      0.00000000	      0.00000000	    -58.15231256	      0.75169172	    -11.36400955	     82.12277281	     -7.43031675	     44.33596974	     23.80249264	     37.49262600	      0.00000000	      0.00000000	     82.05098601	    -14.55991848	     48.65192344	     45.00167885	     44.05548022	      0.00000000	      0.00000000
      2.55000000	    -20.26825680	      4.38483800	     12.39296566	      0.25700117	      1.14914408	     -0.26895084	      0.00000000	      0.50000000	      0.00000000	      0.25000000	     41.10384441	    -13.47650807	     -3.46966592	     53.42295333	      0.93240643	    -35.74098069	    -20.27237428	      0.00000000	      0.00000000	     78.82962104	      7.87986616	     -0.07329263	     88.37360236	      1.54241033	      6.53901405	    -10.08151248	      0.00000000	      0.00000000	    -58.00581442	      0.70959666	    -11.02822293	     82.07627960	     -7.41389255	     44.19351615	     23.83441425	     37.50095080	      0.00000000	      0.00000000	     81.84182734	    -14.56192382	     48.43651215	     45.20203391	     44.07950648	      0.00000000	      0.00000000
      2.55500000	    -20.37557901	      4.06779072	     12.10508377	      0.25711506	      1.14796332	     -0.26829585	      0.00000000	      0.50000000	      0.00000000	      0.25000000	     42.29201919	    -13.00246081	     -2.95049648	     55.97592779	      0.97696424	    -35.10834600	    -20.37962105	      0.00000000	      0.00000000	     77.71634527	      7.97835919	      1.08201909	     86.65376785	      1.51239356	      8.13387708	     -9.22835794	      0.00000000	      0.00000000	    -57.74542220	      0.53738515	    -10.72077638	     81.91772474	     -7.38189757	     44.00334493	     23.70980380	     37.49005158	      0.00000000	      0.00000000	     81.49177119	    -14.58694410	     48.03569538	     45.55596208	     44.11705769	      0.00000000	      0.00000000
      2.56000000	    -20.20511552	      3.41337703	     11.80208704	      0.25733650	      1.14748216	     -0.26749992	      0.00000000	      0.50000000	      0.00000000	      0.25000000	     43.01320314	    -12.18953078	     -2.79510477	     58.06386813	      1.01340568	    -35.13733354	    -20.41530086	      0.00000000	      0.00000000	     76.38761713	      7.79599963	      2.04046934	     84.38873478	      1.47286127	      8.32558558	     -9.43923768	      0.00000000	      0.00000000	    -57.77508998	      0.66256888	    -10.14184857	     81.81014694	     -7.18339827	     44.01726992	     23.73241183	     37.50172149	      0.00000000	      0.00000000	     81.32137574	    -14.70893080	     47.93650387	     45.59099889	     44.11843046	      0.00000000	      0.00000000
      2.56500000	    -20.37055426	      3.21443860	     11.43305316	      0.25734953	      1.14571651	     -0.26707771	      0.00000000	      0.50000000	      0.00000000	      0.25000000	     44.40729050	    -11.94096316	     -2.40570914	     60.82024827	      1.06151358	    -34.01054778	    -20.35771216	      0.00000000	      0.00000000	     75.38717041	      7.80161515	      2.40198878	     82.18029051	      1.43431665	      8.13195817	    -11.02196005	      0.00000000	      0.00000000	    -57.49065853	      0.51275238	    -10.18759280	     82.04131093	     -6.45230591	     43.42297989	     23.01858755	     37.51822291	      0.00000000	      0.00000000	     79.93598739	    -14.90703272	     44.74122400	     47.54694346	     44.24203462	      0.00000000	      0.00000000
